<svg id="Capa_1" data-name="Capa 1" xmlns="http://www.w3.org/2000/svg" xmlns:xlink="http://www.w3.org/1999/xlink" viewBox="0 0 614.60172 100"><defs><linearGradient id="Degradado_sin_nombre_22" x1="546.89194" y1="50.55264" x2="571.95298" y2="50.55264" gradientUnits="userSpaceOnUse"><stop offset="0.03358" stop-color="#7a68ef"/><stop offset="0.53358" stop-color="#7638ff"/><stop offset="0.99813" stop-color="#662eff"/></linearGradient><linearGradient id="Degradado_sin_nombre_25" x1="565.91594" y1="50.90364" x2="551.49014" y2="50.12386" gradientUnits="userSpaceOnUse"><stop offset="0.03358" stop-color="#7a68ef"/><stop offset="0.48507" stop-color="#7638ff"/><stop offset="0.91231" stop-color="#662eff"/></linearGradient></defs><title>logo-crmred-1</title><path d="M413.18162,99.62729H384.22653L361.27964,65.26794h-8.3409V99.62729h-24.1228V42.91223h41.46632c7.14568,0,11.76587-4.03549,11.76587-10.275,0-7.47977-6.07888-10.1401-11.76587-10.1401H344.14172L317.847,0H371.6382c20.57576,0,34.94408,13.30807,34.94408,32.36733,0,15.435-8.75851,25.08673-19.47688,29.30855Z" style="fill:#373e44"/><polygon points="505.58 0 505.58 22.497 448.71 22.497 422.416 0 505.58 0" style="fill:#373e44"/><rect x="433.38471" y="37.48233" width="71.24403" height="22.49067" style="fill:#373e44"/><polygon points="448.71 77.503 505.58 77.503 505.58 100 422.416 100 448.71 77.503" style="fill:#373e44"/><path d="M614.60172,51.00246c0,13.42369-5.03145,25.62648-14.16264,34.35287-9.38832,8.97058-22.19511,13.71291-37.04545,13.71291H520.06378L538.0113,76.91811h25.38233c16.45682,0,27.09172-10.2236,27.09172-26.04418s-10.6349-26.04422-27.09172-26.04422H542.03392L516.144,2.67963h53.67555c.16708.05138.34059.1028.50767.15422a49.14179,49.14179,0,0,1,30.11187,13.87351C614.22262,30.42026,614.60172,47.54532,614.60172,51.00246Z" style="fill:#373e44"/><circle cx="559.42246" cy="50.55264" r="12.53052" style="fill:url(#Degradado_sin_nombre_22)"/><circle cx="559.42246" cy="50.55264" r="11.24534" style="fill:url(#Degradado_sin_nombre_25)"/><path d="M50.13758,100a53.83369,53.83369,0,0,1-20.09631-3.66074A47.21073,47.21073,0,0,1,14.08859,85.9802,45.9839,45.9839,0,0,1,3.66074,70.09631,54.15831,54.15831,0,0,1,0,49.86242,50.394,50.394,0,0,1,3.86711,29.97248,47.90991,47.90991,0,0,1,30.73188,3.72953,54.3674,54.3674,0,0,1,51.1047,0,51.57355,51.57355,0,0,1,64.64027,1.79665,46.90663,46.90663,0,0,1,77.00235,7.11376a41.55975,41.55975,0,0,1,9.87617,8.356L72.51342,31.90671a41.45575,41.45575,0,0,0-6.14664-5.31846,26.36816,26.36816,0,0,0-7.11242-3.52181,26.9511,26.9511,0,0,0-8.28724-1.24227,27.34655,27.34655,0,0,0-10.42786,2.00167A25.33264,25.33264,0,0,0,26.243,38.39866a31.74363,31.74363,0,0,0-2.07181,11.74027A30.80149,30.80149,0,0,0,26.243,61.67148a26.18837,26.18837,0,0,0,5.80135,8.90906,24.35225,24.35225,0,0,0,9.04664,5.66241A34.29608,34.29608,0,0,0,52.9,78.17718a28.25535,28.25535,0,0,0,8.42618-1.24362,30.76,30.76,0,0,0,7.38892-3.38423,31.30209,31.30209,0,0,0,6.00906-4.903L86.049,86.602a32.63012,32.63012,0,0,1-9.18422,6.906,55.44525,55.44525,0,0,1-12.70739,4.76544A58.17409,58.17409,0,0,1,50.13758,100Z" style="fill:#7367f0"/><path d="M182.45569,98.61879,160.80418,61.33022c.54762-.264,1.09137-.53616,1.624-.83223a30.69209,30.69209,0,0,0,11.74027-11.395,31.5957,31.5957,0,0,0,4.28121-16.36812,29.63724,29.63724,0,0,0-4.28121-15.8151A30.22051,30.22051,0,0,0,162.35938,5.94027a35.1662,35.1662,0,0,0-16.78221-4.006H102.06911V98.61879H124.445V64.64161h12.0758l19.139,33.97718ZM124.445,21.54765h16.98859a17.03217,17.03217,0,0,1,7.52786,1.51879,10.947,10.947,0,0,1,4.76543,4.35135,12.75191,12.75191,0,0,1,1.65772,6.56074,14.62672,14.62672,0,0,1-1.45134,6.62953,10.54689,10.54689,0,0,1-4.14363,4.48892,12.12748,12.12748,0,0,1-6.28423,1.58893H124.445Z" style="fill:#7367f0"/><path d="M275.82481,1.93423,247.727,47.02042,220.02347,1.93423H199.02884V98.61879h22.78993V68.50873q0-13.396-.62181-23.13524-.1472-2.306-.34733-4.58334l21.82619,34.34811h9.11543l22.48594-34.8868c-.17518,1.95682-.33265,3.91651-.4554,5.88143q-.62114,9.94429-.62181,22.37584V98.61879h22.78993V1.93423Z" style="fill:#7367f0"/></svg>