<svg xmlns="http://www.w3.org/2000/svg" xmlns:xlink="http://www.w3.org/1999/xlink" width="650" zoomAndPan="magnify" viewBox="0 0 487.5 112.499997" height="150" preserveAspectRatio="xMidYMid meet" version="1.0"><defs><g/></defs><g fill="#2458df" fill-opacity="1"><g transform="translate(35.258053, 87.742441)"><g><path d="M 9.328125 -81.671875 L 24.5 -81.671875 L 24.5 -58.921875 C 25.75 -59.148438 27.070312 -59.421875 28.46875 -59.734375 C 29.707031 -59.972656 31.085938 -60.1875 32.609375 -60.375 C 34.128906 -60.570312 35.703125 -60.671875 37.328125 -60.671875 C 42.304688 -60.671875 46.703125 -60.007812 50.515625 -58.6875 C 54.328125 -57.363281 57.554688 -55.535156 60.203125 -53.203125 C 62.847656 -50.867188 64.847656 -48.109375 66.203125 -44.921875 C 67.566406 -41.734375 68.25 -38.234375 68.25 -34.421875 L 68.25 0 L 53.078125 0 L 53.078125 -34.421875 C 53.078125 -38.234375 51.695312 -41.421875 48.9375 -43.984375 C 46.175781 -46.546875 42.304688 -47.828125 37.328125 -47.828125 C 35.703125 -47.828125 34.128906 -47.726562 32.609375 -47.53125 C 31.085938 -47.34375 29.707031 -47.132812 28.46875 -46.90625 C 27.070312 -46.59375 25.75 -46.316406 24.5 -46.078125 L 24.5 0 L 9.328125 0 Z M 9.328125 -81.671875 "/></g></g></g><g fill="#2458df" fill-opacity="1"><g transform="translate(104.67398, 87.742441)"><g><path d="M 37.328125 2.328125 C 32.660156 2.328125 28.320312 1.515625 24.3125 -0.109375 C 20.3125 -1.742188 16.851562 -3.976562 13.9375 -6.8125 C 11.019531 -9.65625 8.742188 -13.003906 7.109375 -16.859375 C 5.484375 -20.710938 4.671875 -24.816406 4.671875 -29.171875 C 4.671875 -33.523438 5.484375 -37.625 7.109375 -41.46875 C 8.742188 -45.320312 11.019531 -48.664062 13.9375 -51.5 C 16.851562 -54.34375 20.3125 -56.582031 24.3125 -58.21875 C 28.320312 -59.851562 32.660156 -60.671875 37.328125 -60.671875 C 41.992188 -60.671875 46.3125 -59.851562 50.28125 -58.21875 C 54.25 -56.582031 57.691406 -54.34375 60.609375 -51.5 C 63.523438 -48.664062 65.816406 -45.320312 67.484375 -41.46875 C 69.160156 -37.625 70 -33.523438 70 -29.171875 C 70 -24.816406 69.160156 -20.710938 67.484375 -16.859375 C 65.816406 -13.003906 63.523438 -9.65625 60.609375 -6.8125 C 57.691406 -3.976562 54.25 -1.742188 50.28125 -0.109375 C 46.3125 1.515625 41.992188 2.328125 37.328125 2.328125 Z M 37.328125 -10.5 C 39.660156 -10.5 41.859375 -10.945312 43.921875 -11.84375 C 45.984375 -12.738281 47.769531 -14 49.28125 -15.625 C 50.800781 -17.257812 52.007812 -19.222656 52.90625 -21.515625 C 53.800781 -23.816406 54.25 -26.367188 54.25 -29.171875 C 54.25 -31.972656 53.800781 -34.519531 52.90625 -36.8125 C 52.007812 -39.101562 50.800781 -41.066406 49.28125 -42.703125 C 47.769531 -44.335938 45.984375 -45.597656 43.921875 -46.484375 C 41.859375 -47.378906 39.660156 -47.828125 37.328125 -47.828125 C 34.992188 -47.828125 32.796875 -47.378906 30.734375 -46.484375 C 28.679688 -45.597656 26.894531 -44.335938 25.375 -42.703125 C 23.851562 -41.066406 22.644531 -39.101562 21.75 -36.8125 C 20.863281 -34.519531 20.421875 -31.972656 20.421875 -29.171875 C 20.421875 -26.367188 20.863281 -23.816406 21.75 -21.515625 C 22.644531 -19.222656 23.851562 -17.257812 25.375 -15.625 C 26.894531 -14 28.679688 -12.738281 30.734375 -11.84375 C 32.796875 -10.945312 34.992188 -10.5 37.328125 -10.5 Z M 37.328125 -10.5 "/></g></g></g><g fill="#2458df" fill-opacity="1"><g transform="translate(172.339917, 87.742441)"><g><path d="M 8.75 -55.421875 C 11.3125 -56.347656 13.992188 -57.203125 16.796875 -57.984375 C 19.210938 -58.609375 21.9375 -59.210938 24.96875 -59.796875 C 28 -60.378906 31.148438 -60.671875 34.421875 -60.671875 C 37.453125 -60.671875 40.132812 -60.359375 42.46875 -59.734375 C 44.800781 -59.109375 46.742188 -58.410156 48.296875 -57.640625 C 50.171875 -56.785156 51.765625 -55.8125 53.078125 -54.71875 L 53.671875 -54.71875 C 55.304688 -55.8125 57.132812 -56.785156 59.15625 -57.640625 C 60.945312 -58.410156 63.046875 -59.109375 65.453125 -59.734375 C 67.859375 -60.359375 70.539062 -60.671875 73.5 -60.671875 C 82.914062 -60.671875 90.035156 -58.351562 94.859375 -53.71875 C 99.679688 -49.09375 102.09375 -42.660156 102.09375 -34.421875 L 102.09375 0 L 86.921875 0 L 86.921875 -34.421875 C 86.921875 -43.359375 82.445312 -47.828125 73.5 -47.828125 C 71.5625 -47.828125 69.867188 -47.613281 68.421875 -47.1875 C 66.984375 -46.757812 65.722656 -46.316406 64.640625 -45.859375 C 63.390625 -45.234375 62.300781 -44.570312 61.375 -43.875 C 61.601562 -43.09375 61.875 -42.234375 62.1875 -41.296875 C 62.34375 -40.441406 62.515625 -39.453125 62.703125 -38.328125 C 62.898438 -37.203125 63 -35.898438 63 -34.421875 L 63 0 L 47.828125 0 L 47.828125 -34.421875 C 47.828125 -43.359375 43.359375 -47.828125 34.421875 -47.828125 C 32.941406 -47.828125 31.554688 -47.726562 30.265625 -47.53125 C 28.984375 -47.34375 27.878906 -47.132812 26.953125 -46.90625 C 25.859375 -46.59375 24.847656 -46.316406 23.921875 -46.078125 L 23.921875 0 L 8.75 0 Z M 8.75 -55.421875 "/></g></g></g><g fill="#2458df" fill-opacity="1"><g transform="translate(275.588988, 87.742441)"><g><path d="M 9.328125 -58.328125 L 24.5 -58.328125 L 24.5 0 L 9.328125 0 Z M 16.921875 -66.5 C 14.273438 -66.5 12.054688 -67.375 10.265625 -69.125 C 8.472656 -70.875 7.578125 -72.914062 7.578125 -75.25 C 7.578125 -77.582031 8.472656 -79.625 10.265625 -81.375 C 12.054688 -83.125 14.273438 -84 16.921875 -84 C 19.566406 -84 21.78125 -83.125 23.5625 -81.375 C 25.351562 -79.625 26.25 -77.582031 26.25 -75.25 C 26.25 -72.914062 25.351562 -70.875 23.5625 -69.125 C 21.78125 -67.375 19.566406 -66.5 16.921875 -66.5 Z M 16.921875 -66.5 "/></g></g></g><g fill="#2458df" fill-opacity="1"><g transform="translate(302.421822, 87.742441)"><g><path d="M 39.671875 2.328125 C 34.691406 2.328125 30.273438 1.664062 26.421875 0.34375 C 22.578125 -0.976562 19.347656 -2.804688 16.734375 -5.140625 C 14.128906 -7.472656 12.144531 -10.234375 10.78125 -13.421875 C 9.425781 -16.609375 8.75 -20.109375 8.75 -23.921875 L 8.75 -58.328125 L 23.921875 -58.328125 L 23.921875 -23.921875 C 23.921875 -20.109375 25.300781 -16.914062 28.0625 -14.34375 C 30.820312 -11.78125 34.691406 -10.5 39.671875 -10.5 C 41.222656 -10.5 42.773438 -10.578125 44.328125 -10.734375 C 45.890625 -10.890625 47.289062 -11.082031 48.53125 -11.3125 C 49.9375 -11.625 51.257812 -11.9375 52.5 -12.25 L 52.5 -58.328125 L 67.671875 -58.328125 L 67.671875 -2.921875 C 64.796875 -1.910156 61.800781 -1.015625 58.6875 -0.234375 C 55.96875 0.390625 52.953125 0.972656 49.640625 1.515625 C 46.335938 2.054688 43.015625 2.328125 39.671875 2.328125 Z M 39.671875 2.328125 "/></g></g></g><g fill="#2458df" fill-opacity="1"><g transform="translate(371.837749, 87.742441)"><g><path d="M 8.75 -55.421875 C 11.238281 -56.347656 13.921875 -57.203125 16.796875 -57.984375 C 19.285156 -58.609375 22.085938 -59.210938 25.203125 -59.796875 C 28.316406 -60.378906 31.582031 -60.671875 35 -60.671875 C 40.132812 -60.671875 44.800781 -59.851562 49 -58.21875 C 53.195312 -56.582031 56.8125 -54.34375 59.84375 -51.5 C 62.882812 -48.664062 65.238281 -45.320312 66.90625 -41.46875 C 68.582031 -37.625 69.421875 -33.523438 69.421875 -29.171875 C 69.421875 -24.816406 68.582031 -20.710938 66.90625 -16.859375 C 65.238281 -13.003906 62.882812 -9.65625 59.84375 -6.8125 C 56.8125 -3.976562 53.195312 -1.742188 49 -0.109375 C 44.800781 1.515625 40.132812 2.328125 35 2.328125 C 33.675781 2.328125 32.375 2.25 31.09375 2.09375 C 29.8125 1.9375 28.625 1.742188 27.53125 1.515625 C 26.289062 1.203125 25.085938 0.890625 23.921875 0.578125 L 23.921875 22.171875 L 8.75 22.171875 Z M 35 -10.5 C 40.601562 -10.5 45.113281 -12.207031 48.53125 -15.625 C 51.957031 -19.050781 53.671875 -23.566406 53.671875 -29.171875 C 53.671875 -34.765625 51.957031 -39.269531 48.53125 -42.6875 C 45.113281 -46.113281 40.601562 -47.828125 35 -47.828125 C 33.675781 -47.828125 32.375 -47.726562 31.09375 -47.53125 C 29.8125 -47.34375 28.625 -47.132812 27.53125 -46.90625 C 26.289062 -46.59375 25.085938 -46.316406 23.921875 -46.078125 L 23.921875 -12.25 C 25.085938 -11.9375 26.289062 -11.625 27.53125 -11.3125 C 28.625 -11.082031 29.8125 -10.890625 31.09375 -10.734375 C 32.375 -10.578125 33.675781 -10.5 35 -10.5 Z M 35 -10.5 "/></g></g></g></svg>