<svg id="Capa_1" data-name="Capa 1" xmlns="http://www.w3.org/2000/svg" viewBox="0 0 116.46067 116.46067"><title>btn-wa</title><circle cx="58.23034" cy="58.23034" r="58.23034" style="fill:#40c351"/><path d="M20.163,96.63971l5.388-19.67a37.97472,37.97472,0,1,1,32.904,19.012h-.016a37.93007,37.93007,0,0,1-18.146-4.622Z" style="fill:#fff;fill-rule:evenodd"/><path d="M80.779,35.69771a31.56393,31.56393,0,0,0-49.062,39.088l.752,1.194-3.19,11.642,11.946-3.132,1.154.684a31.50024,31.50024,0,0,0,16.064,4.398h.012a31.56383,31.56383,0,0,0,22.324-53.874Z" style="fill:#40c351;fill-rule:evenodd"/><path d="M48.963,42.12371c-.71-1.58-1.458-1.612-2.136-1.64-.554-.024-1.186-.022-1.818-.022a3.48729,3.48729,0,0,0-2.53,1.188,10.63457,10.63457,0,0,0-3.322,7.912c0,4.668,3.4,9.18,3.874,9.812s6.564,10.518,16.208,14.322c8.014,3.16,9.646,2.532,11.386,2.374s5.614-2.294,6.404-4.51.79-4.114.554-4.51c-.238-.396-.87-.632-1.818-1.108s-5.614-2.77-6.484-3.086-1.502-.474-2.136.476c-.632.948-2.45,3.086-3.004,3.718-.554.634-1.108.714-2.056.238a25.971,25.971,0,0,1-7.63-4.708,28.5858,28.5858,0,0,1-5.278-6.57c-.554-.948-.06-1.462.416-1.936.426-.426.948-1.108,1.424-1.662a6.48866,6.48866,0,0,0,.948-1.582,1.7449,1.7449,0,0,0-.08-1.662C51.651,48.69171,49.807,43.99971,48.963,42.12371Z" style="fill:#fff;fill-rule:evenodd"/></svg>